<?xml version="1.0" encoding="utf-8"?>
<!-- Generator: Adobe Illustrator 23.0.4, SVG Export Plug-In . SVG Version: 6.00 Build 0)  -->
<svg version="1.1" id="Layer_1" xmlns="http://www.w3.org/2000/svg" xmlns:xlink="http://www.w3.org/1999/xlink" x="0px" y="0px"
	 viewBox="0 0 100 100" style="enable-background:new 0 0 100 100;" xml:space="preserve">
<style type="text/css">
	.st0{fill:#FFFFFF;}
	.st1{fill-rule:evenodd;clip-rule:evenodd;fill:#FFFFFF;}
</style>
<g>
	<path class="st0" d="M80.77,36.07l-6.81,0.77c1.67,3.75,2.47,7.34,2.66,11.68c0.82,18.64-13.62,34.41-32.26,35.23
		C25.72,84.57,9.94,70.12,9.12,51.49C8.3,32.85,22.75,17.07,41.38,16.25c10.33-0.45,19.77,3.78,26.29,10.81l0,0l4.29-5.04
		C64.21,13.96,53.15,9.14,41.1,9.67C18.82,10.65,1.56,29.5,2.54,51.78c0.98,22.27,19.83,39.54,42.11,38.56
		C66.92,89.35,84.18,70.5,83.2,48.23C83,43.76,82.29,40.03,80.77,36.07z"/>
	<path class="st0" d="M59.61,33.79l3.83-2.55c-5.37-5.88-13.21-9.43-21.79-9.05c-15.36,0.68-27.27,13.68-26.59,29.04
		c0.68,15.36,13.68,27.27,29.04,26.59c15.36-0.68,27.27-13.68,26.59-29.04c-0.15-3.31-0.87-6.47-2.06-9.37l-3.94,2.39
		c0.84,2.24,1.35,4.66,1.47,7.18c0.57,12.85-9.4,23.73-22.25,24.3c-12.85,0.57-23.73-9.4-24.3-22.25
		c-0.57-12.85,9.4-23.73,22.25-24.3C48.78,26.42,55.13,29.18,59.61,33.79z"/>
	<path class="st0" d="M55.25,36.7c-3.44-3.2-8.11-5.07-13.18-4.85c-10.03,0.44-17.79,8.93-17.35,18.95
		c0.44,10.02,8.93,17.79,18.95,17.35c10.03-0.44,17.8-8.93,17.35-18.95c-0.07-1.63-0.36-3.2-0.83-4.69l-2.62,1.59
		c0.27,1.04,0.44,2.12,0.49,3.23c0.37,8.39-6.13,15.49-14.52,15.86c-8.39,0.37-15.49-6.13-15.86-14.52
		c-0.37-8.39,6.13-15.49,14.52-15.86c3.98-0.18,7.68,1.2,10.5,3.59L55.25,36.7z"/>
	<path class="st0" d="M46.4,42.6l1.51-1.01c-1.59-0.96-3.47-1.47-5.47-1.38c-5.41,0.24-9.6,4.82-9.36,10.23
		c0.24,5.41,4.82,9.6,10.22,9.36c5.41-0.24,9.6-4.82,9.36-10.23c-0.01-0.16-0.02-0.32-0.04-0.47l-1.56,0.94
		c-0.02,4.35-3.45,7.96-7.84,8.16c-4.53,0.2-8.36-3.31-8.56-7.83c-0.2-4.53,3.31-8.36,7.83-8.56C43.9,41.74,45.22,42.04,46.4,42.6z"
		/>
	<path class="st0" d="M40.64,47.43l1.19-1.37c-1.82,0.48-3.12,2.17-3.03,4.12c0.1,2.25,2,3.99,4.25,3.89
		c0.95-0.04,1.82-0.41,2.49-0.99l-1.72,0.19c-0.25,0.07-0.52,0.12-0.79,0.13c-1.88,0.08-3.48-1.38-3.56-3.26
		C39.41,49.07,39.88,48.08,40.64,47.43z"/>
	<polygon class="st0" points="42.14,49.85 42.75,51.04 70.03,34.59 79.29,33.87 97.5,22.68 88.22,20.86 89.53,11.62 73.27,23.82 
		68.32,32.24 	"/>
</g>
</svg>
