<?xml version="1.0" encoding="utf-8"?>
<!-- Generator: Adobe Illustrator 23.0.4, SVG Export Plug-In . SVG Version: 6.00 Build 0)  -->
<svg version="1.1" id="Layer_1" xmlns="http://www.w3.org/2000/svg" xmlns:xlink="http://www.w3.org/1999/xlink" x="0px" y="0px"
	 viewBox="0 0 100 100" style="enable-background:new 0 0 100 100;" xml:space="preserve">
<style type="text/css">
	.st0{fill:#FFFFFF;}
	.st1{fill-rule:evenodd;clip-rule:evenodd;fill:#FFFFFF;}
</style>
<g>
	<path class="st0" d="M31.34,54L6.23,54.03c2.55,4.28,7.22,7.15,12.56,7.15C24.13,61.17,28.8,58.29,31.34,54z"/>
	<path class="st0" d="M81.23,61.11c5.34-0.01,10.01-2.88,12.55-7.17l-25.11,0.03C71.21,58.25,75.89,61.12,81.23,61.11z"/>
	<path class="st0" d="M95.91,49.17l-2.06,0l-11.11-26.9c-0.15-0.72-0.79-1.26-1.56-1.26l-26.69,0.03c-0.49-1.21-1.47-2.16-2.69-2.63
		l0-2.35c0-0.88-0.71-1.59-1.59-1.59s-1.59,0.71-1.59,1.59l0,2.27c-1.31,0.44-2.37,1.43-2.89,2.71l-26.49,0.03
		c-0.17,0-0.34,0.03-0.49,0.08l0,0c-0.03,0-0.05,0-0.08,0c-0.03,0-0.05,0-0.08,0c-0.03,0-0.05,0.01-0.08,0.01
		c-0.02,0-0.05,0.01-0.07,0.01c-0.03,0.01-0.06,0.01-0.1,0.02c-0.02,0-0.04,0.01-0.06,0.01c-0.05,0.01-0.09,0.03-0.14,0.05
		c0,0-0.01,0-0.01,0l0,0c-0.1,0.04-0.19,0.09-0.28,0.15c-0.01,0.01-0.02,0.01-0.03,0.02c-0.03,0.02-0.06,0.05-0.1,0.07
		c-0.01,0.01-0.02,0.02-0.03,0.03c-0.03,0.03-0.06,0.05-0.09,0.08c-0.01,0.01-0.01,0.02-0.02,0.02c-0.03,0.03-0.06,0.06-0.08,0.09
		c0,0-0.01,0.01-0.01,0.01c-0.09,0.12-0.17,0.24-0.23,0.39L6.14,49.26l-2.06,0c-0.88,0-1.59,0.71-1.59,1.59
		c0,0.88,0.71,1.59,1.59,1.59l29.38-0.03c0.88,0,1.59-0.71,1.59-1.59c0-0.88-0.71-1.59-1.59-1.59l-2.06,0L21.09,24.25l24.5-0.02
		c0.45,1.46,1.59,2.62,3.04,3.1l0.05,50.68l-12.87,0.01c-0.4,0-0.73,0.71-0.73,1.59c0,0.11,0.01,0.22,0.01,0.32l-15.8,0.02
		c-0.88,0-1.59,1.25-1.59,2.79c0,1.54,0.71,2.78,1.59,2.78l61.94-0.06c0.88,0,1.59-1.25,1.59-2.79c0-1.54-0.71-2.78-1.59-2.78
		L64.95,79.9c0.01-0.1,0.01-0.21,0.01-0.32c0-0.88-0.33-1.59-0.73-1.59l-12.38,0.01l-0.05-50.76c1.35-0.52,2.4-1.64,2.83-3.03
		l24.21-0.02l-10.27,25l-2.06,0c-0.88,0-1.59,0.71-1.59,1.59s0.71,1.59,1.59,1.59l29.38-0.03c0.88,0,1.59-0.71,1.59-1.59
		S96.79,49.17,95.91,49.17z M9.58,49.26l9.17-22.34l9.22,22.32L9.58,49.26z M81.2,26.86l9.22,22.32l-18.39,0.02L81.2,26.86z"/>
</g>
</svg>
