<?xml version="1.0" encoding="utf-8"?>
<!-- Generator: Adobe Illustrator 23.0.4, SVG Export Plug-In . SVG Version: 6.00 Build 0)  -->
<svg version="1.1" id="Layer_1" xmlns="http://www.w3.org/2000/svg" xmlns:xlink="http://www.w3.org/1999/xlink" x="0px" y="0px"
	 viewBox="0 0 100 100" style="enable-background:new 0 0 100 100;" xml:space="preserve">
<style type="text/css">
	.st0{fill:#FFFFFF;}
	.st1{fill-rule:evenodd;clip-rule:evenodd;fill:#FFFFFF;}
</style>
<path class="st0" d="M83.46,49.9c-0.02,5.12-3.52,9.24-7.83,9.22C81.35,28.95,58.29,10.84,44.44,2.5
	c2.37,20.39-3.08,33.04-8.97,37.32c-2.16,1.56-5.2,1.07-6.87-1.01c-2-2.49-3.34-3.25-4.24-10.09c-9.81,16.4-8.26,24.32-3.3,32.86
	c-5.4,0.75-6.97-2.39-9.96-5.16C11.01,79.04,28.25,97.41,49.66,97.5C80.83,96.17,98.48,68.48,83.46,49.9z M59.57,93.73
	c-2.68,1.25-9.71,2.32-16.03,0.68c-13.36-3.48-12.83-22.77-5.07-31.72c0,0-0.97,3.72,1.87,6.09c3.65,3.05,11.71,1.69,12.69-14.72
	c9.05,8.51,7.86,16.98,11.08,21.81c2.14,3.2,6.96,1.02,7.53-1.61C71.43,77.54,67.91,89.85,59.57,93.73z"/>
</svg>
