<?xml version="1.0" encoding="utf-8"?>
<!-- Generator: Adobe Illustrator 23.0.4, SVG Export Plug-In . SVG Version: 6.00 Build 0)  -->
<svg version="1.1" id="Layer_1" xmlns="http://www.w3.org/2000/svg" xmlns:xlink="http://www.w3.org/1999/xlink" x="0px" y="0px"
	 viewBox="0 0 100 100" style="enable-background:new 0 0 100 100;" xml:space="preserve">
<style type="text/css">
	.st0{fill:#FFFFFF;}
	.st1{fill-rule:evenodd;clip-rule:evenodd;fill:#FFFFFF;}
</style>
<g>
	<path class="st0" d="M60.05,93.3l-15.06,1.86c-0.02,0-0.03,0.03-0.01,0.04c2.44,1.72,5.17,2.56,7.94,2.21
		c2.77-0.34,5.21-1.81,7.16-4.08C60.09,93.32,60.08,93.3,60.05,93.3z"/>
	<path class="st0" d="M49.97,2.5C32.78,2.52,18.81,16.52,18.83,33.7c0.01,7.74,3.63,13.68,7.47,19.97c1.84,3.01,3.74,6.13,5.22,9.48
		c0.45,1.02,1.64,1.48,2.66,1.03c1.02-0.45,1.48-1.64,1.03-2.66c-1.59-3.6-3.56-6.82-5.47-9.95c-3.54-5.79-6.88-11.26-6.88-17.88
		C22.84,18.73,35.01,6.54,49.97,6.53c14.97-0.02,27.16,12.15,27.17,27.12c0.01,6.61-3.32,12.09-6.85,17.89
		c-3.41,5.61-7.25,11.92-8.36,19.99L36.28,74.7c-1.1,0.14-1.89,1.14-1.75,2.25c0.13,1.02,1,1.77,2,1.77c0.08,0,0.16-0.01,0.25-0.02
		l27.23-3.37c0.01,0,0.03-0.01,0.04-0.01c0.05-0.01,0.09-0.01,0.14-0.02c0.02,0,0.04-0.01,0.07-0.02c0.04-0.01,0.08-0.02,0.12-0.03
		c0.03-0.01,0.05-0.02,0.08-0.03c0.03-0.01,0.07-0.02,0.1-0.04c0.03-0.01,0.06-0.02,0.09-0.04c0.03-0.01,0.05-0.03,0.08-0.04
		c0.03-0.02,0.06-0.03,0.09-0.05c0.02-0.01,0.05-0.03,0.07-0.05c0.03-0.02,0.06-0.04,0.09-0.06c0.02-0.02,0.05-0.04,0.07-0.05
		c0.03-0.02,0.05-0.04,0.08-0.06c0.02-0.02,0.05-0.04,0.07-0.07c0.02-0.02,0.04-0.04,0.06-0.06c0.03-0.03,0.05-0.06,0.08-0.09
		c0.01-0.02,0.03-0.04,0.04-0.05c0.03-0.04,0.06-0.08,0.08-0.12c0.01-0.01,0.02-0.02,0.02-0.04c0.03-0.05,0.06-0.1,0.09-0.16
		c0,0,0,0,0-0.01c0.06-0.11,0.1-0.23,0.14-0.36c0.01-0.05,0.02-0.09,0.03-0.14c0-0.02,0.01-0.03,0.01-0.04
		c0.01-0.05,0.01-0.1,0.02-0.15c0-0.02,0-0.03,0.01-0.05c0,0,0-0.01,0-0.01c0,0,0,0,0-0.01c0.7-7.91,4.4-13.99,7.97-19.86
		c3.83-6.3,7.44-12.24,7.43-19.99C81.16,16.45,67.16,2.48,49.97,2.5z"/>
	<path class="st0" d="M37.66,85.82l27.23-3.37c1.1-0.14,1.89-1.14,1.75-2.25c-0.14-1.1-1.14-1.89-2.25-1.75l-27.23,3.37
		c-1.1,0.14-1.89,1.14-1.75,2.25c0.13,1.02,1,1.77,2,1.77C37.49,85.83,37.57,85.83,37.66,85.82z"/>
	<path class="st0" d="M65.27,85.56l-27.23,3.37c-1.1,0.14-1.89,1.14-1.75,2.25c0.13,1.02,1,1.77,2,1.77c0.08,0,0.16-0.01,0.25-0.02
		l27.23-3.37c1.1-0.14,1.89-1.14,1.75-2.25C67.38,86.21,66.38,85.42,65.27,85.56z"/>
	<path class="st0" d="M34.9,40.01c-0.17,0.15-0.21,0.39-0.12,0.6c0.15,0.32,0.32,0.63,0.49,0.94l0.12,0.22l0.11,0.2
		c0.19,0.31,0.38,0.61,0.58,0.91c0.13,0.19,0.36,0.27,0.57,0.2l1.87-0.62c0.2-0.07,0.41,0,0.54,0.16c0.51,0.59,1.06,1.14,1.65,1.65
		c0.16,0.13,0.22,0.35,0.16,0.54l-0.62,1.87c-0.07,0.21,0.01,0.45,0.2,0.57c0.3,0.2,0.6,0.4,0.91,0.58l0.2,0.11l0.22,0.12
		c0.31,0.17,0.62,0.33,0.94,0.49c0.2,0.1,0.45,0.05,0.6-0.12l1.31-1.47c0.14-0.15,0.35-0.21,0.55-0.14c0.73,0.26,1.48,0.46,2.26,0.6
		c0.2,0.04,0.37,0.19,0.41,0.39l0.4,1.93c0.04,0.22,0.23,0.38,0.45,0.4c0.43,0.03,0.87,0.05,1.32,0.05h0l0,0
		c0.44,0,0.88-0.02,1.32-0.05c0.22-0.02,0.4-0.18,0.45-0.4l0.39-1.93c0.04-0.2,0.2-0.36,0.41-0.39c0.78-0.14,1.53-0.35,2.26-0.61
		c0.19-0.07,0.41-0.02,0.55,0.14l1.31,1.47c0.15,0.17,0.39,0.21,0.6,0.12c0.32-0.15,0.63-0.32,0.94-0.49l0.22-0.12l0.2-0.11
		c0.31-0.19,0.61-0.38,0.91-0.58c0.19-0.13,0.27-0.36,0.2-0.57l-0.62-1.87c-0.07-0.2,0-0.41,0.16-0.54c0.3-0.25,0.58-0.52,0.86-0.79
		c0.28-0.28,0.54-0.56,0.79-0.86c0.13-0.16,0.35-0.22,0.54-0.16l1.87,0.62c0.21,0.07,0.45-0.01,0.57-0.2c0.2-0.3,0.4-0.6,0.58-0.91
		l0.11-0.2l0.12-0.22c0.17-0.31,0.33-0.62,0.49-0.94c0.1-0.2,0.05-0.45-0.12-0.6l-1.47-1.31c-0.15-0.14-0.21-0.35-0.14-0.55
		c0.26-0.73,0.46-1.48,0.6-2.26c0.04-0.2,0.19-0.37,0.39-0.41l1.93-0.4c0.22-0.04,0.38-0.23,0.4-0.45c0.03-0.43,0.05-0.87,0.05-1.32
		v0l0,0c0-0.44-0.02-0.88-0.05-1.32c-0.02-0.22-0.18-0.4-0.4-0.45l-1.93-0.4c-0.2-0.04-0.36-0.2-0.39-0.41
		c-0.14-0.78-0.35-1.53-0.61-2.26c-0.07-0.19-0.02-0.41,0.14-0.55l1.47-1.31c0.17-0.15,0.21-0.39,0.12-0.6
		c-0.15-0.32-0.32-0.63-0.49-0.94l-0.12-0.21l-0.11-0.2c-0.19-0.31-0.38-0.61-0.59-0.91c-0.13-0.19-0.36-0.27-0.57-0.2l-1.87,0.62
		c-0.2,0.07-0.41,0-0.54-0.16c-0.51-0.59-1.06-1.14-1.65-1.65c-0.16-0.13-0.22-0.35-0.16-0.54l0.62-1.87
		c0.07-0.21-0.01-0.45-0.2-0.57c-0.3-0.2-0.6-0.4-0.91-0.58l-0.2-0.11l-0.22-0.12c-0.31-0.17-0.62-0.33-0.94-0.49
		c-0.2-0.1-0.45-0.05-0.6,0.12l-1.31,1.47c-0.14,0.15-0.35,0.21-0.55,0.14c-0.73-0.26-1.48-0.46-2.26-0.6
		c-0.2-0.04-0.37-0.19-0.41-0.39l-0.4-1.93c-0.04-0.22-0.23-0.38-0.45-0.4c-0.43-0.03-0.87-0.05-1.32-0.05l0,0l0,0
		c-0.44,0-0.88,0.02-1.32,0.05c-0.22,0.02-0.4,0.18-0.45,0.4l-0.4,1.93c-0.04,0.2-0.2,0.36-0.41,0.39
		c-0.78,0.14-1.53,0.35-2.26,0.61c-0.19,0.07-0.41,0.02-0.55-0.14l-1.31-1.47c-0.15-0.17-0.39-0.21-0.6-0.12
		c-0.32,0.15-0.63,0.32-0.94,0.49l-0.22,0.12l-0.2,0.11c-0.31,0.19-0.61,0.38-0.91,0.58c-0.19,0.13-0.27,0.36-0.2,0.57l0.62,1.87
		c0.07,0.2,0,0.41-0.16,0.54c-0.3,0.25-0.58,0.52-0.86,0.79c-0.28,0.28-0.54,0.56-0.79,0.86c-0.13,0.16-0.35,0.22-0.54,0.16
		l-1.87-0.62c-0.21-0.07-0.45,0.01-0.57,0.2c-0.2,0.3-0.4,0.6-0.58,0.91c-0.03,0.05-0.11,0.2-0.11,0.2l-0.12,0.22
		c-0.17,0.31-0.33,0.62-0.49,0.94c-0.1,0.2-0.05,0.45,0.12,0.6l1.47,1.31c0.15,0.14,0.21,0.35,0.14,0.55
		c-0.26,0.73-0.46,1.48-0.6,2.26c-0.04,0.2-0.19,0.37-0.39,0.41l-1.93,0.4c-0.22,0.04-0.38,0.23-0.4,0.45
		c-0.03,0.43-0.05,0.87-0.05,1.32v0l0,0c0,0.44,0.02,0.88,0.05,1.32c0.02,0.22,0.18,0.4,0.4,0.45l1.93,0.4
		c0.2,0.04,0.36,0.2,0.39,0.41c0.14,0.78,0.35,1.53,0.61,2.26c0.07,0.19,0.02,0.41-0.14,0.55L34.9,40.01z M43.43,24.13
		c3.89-2.83,9.22-2.83,13.12-0.01c5.89,4.26,6.28,12.61,1.17,17.41c-4.31,4.05-11.11,4.05-15.42,0.02
		C37.18,36.75,37.55,28.4,43.43,24.13z"/>
</g>
</svg>
