<?xml version="1.0" encoding="utf-8"?>
<!-- Generator: Adobe Illustrator 23.0.4, SVG Export Plug-In . SVG Version: 6.00 Build 0)  -->
<svg version="1.1" id="Layer_1" xmlns="http://www.w3.org/2000/svg" xmlns:xlink="http://www.w3.org/1999/xlink" x="0px" y="0px"
	 viewBox="0 0 100 100" style="enable-background:new 0 0 100 100;" xml:space="preserve">
<style type="text/css">
	.st0{fill:#FFFFFF;}
	.st1{fill-rule:evenodd;clip-rule:evenodd;fill:#FFFFFF;}
</style>
<g>
	<path class="st1" d="M13.16,54.28L2.5,51.35l7.84-24.57l12.56,4.84L13.16,54.28L13.16,54.28z M70.89,62.04
		c-4.03-2.84-9.68-6.85-13.14-9.3c-0.26-0.19-0.68-0.16-0.94,0.06c-0.25,0.22-0.24,0.55,0.02,0.74c0.02,0.02,0.04,0.03,0.06,0.05
		c3.87,2.8,9.52,6.85,13.67,9.83c1,0.72,0.89,1.53,0.38,2.25c-2.18,3.11-5.6,2.62-8.36,0.55c-2.94-2.57-6.03-4.51-9.14-6.83
		c-0.26-0.19-0.68-0.17-0.94,0.04c-0.26,0.22-0.26,0.55,0,0.74c3.36,2.52,6.83,5.06,10.2,7.58c0.79,0.59,0.96,1.33,0.23,2.18
		c-1.2,1.41-4.52,2.37-7.36,0.22c-2.45-1.85-4.9-3.7-7.34-5.56c-0.26-0.19-0.68-0.18-0.94,0.04c-0.26,0.22-0.26,0.55-0.01,0.74
		l6.15,4.65c2.42,2.22-2.23,4.52-5.72,2.52c-1.48-0.89-2.92-1.75-4.32-2.58l0.66-0.97l0.32-0.44c1.05-1.45,1.25-3.21,0.07-4.63
		c-0.35-0.43-0.8-0.77-1.29-1.04c-0.49-0.26-1.02-0.44-1.56-0.53c-0.48-0.08-0.97-0.09-1.45-0.01c0.08-0.86-0.16-1.72-0.78-2.47
		c-0.37-0.45-0.84-0.82-1.35-1.09c-0.51-0.27-1.07-0.46-1.64-0.54c-0.74-0.11-1.49-0.05-2.15,0.21c-0.1-0.56-0.34-1.1-0.74-1.59
		c-0.37-0.45-0.84-0.82-1.35-1.09c-0.51-0.27-1.07-0.46-1.64-0.54c-1.26-0.19-2.54,0.13-3.38,1.06c-0.13-0.29-0.29-0.57-0.51-0.83
		c-0.35-0.43-0.79-0.78-1.28-1.04c-0.48-0.26-1.01-0.45-1.55-0.54c-1.46-0.25-2.99,0.18-3.87,1.43l-0.01,0.02l-0.58,0.89
		c-1.57-0.91-3.02-1.76-4.34-2.57c2.78-6.57,5.56-13.15,8.35-19.72c1.12-0.07,2.25-0.14,3.37-0.21c2.94-1,5.88-2.01,8.82-3.01
		c3.28-1.12,7.25-0.81,11.01-0.48c-0.33,0.11-0.66,0.21-0.99,0.32c-1.09,0.36-2.19,0.75-3.14,1.4c-0.9,0.61-1.59,1.41-2.23,2.28
		c-0.95,1.28-1.81,2.69-2.66,4.04c-0.93,1.48-1.96,2.91-3.08,4.25c-0.66,0.8-1.22,1.87-0.69,2.89c0.82,1.56,3.4,1.35,4.85,1.11
		c1.03-0.17,2.44-0.54,3.34-1.14c1.93-0.9,3.67-2.82,5.12-4.41l3.89-0.92c2.74,3.62,7.75,6.66,12.63,7.9l1.53,1.2
		c4.16,3.27,8.48,6.39,12.78,9.48C81.53,60.73,75.7,65.42,70.89,62.04L70.89,62.04z"/>
	<path class="st1" d="M30.33,56.36c-1-0.15-2.03,0.12-2.58,0.98l0,0l-0.01,0.01c-1.15,1.64-1.76,2.67-2.92,4.3
		c-0.01,0.01-0.01,0.02-0.02,0.02c-0.66,0.89-0.5,1.88,0.09,2.65c0.24,0.32,0.56,0.59,0.92,0.81c0.35,0.21,0.75,0.37,1.17,0.45
		c0.95,0.18,2-0.08,2.85-1.03l1.88-2.74l1.01-1.44c0.64-1.1,0.46-2.08-0.13-2.79c-0.27-0.32-0.61-0.59-1-0.8
		C31.21,56.57,30.77,56.42,30.33,56.36L30.33,56.36z M77.93,57.17c-3.39-2.43-9.05-6.51-12.14-8.94c1.25,0.16,1.16,0.23,2.59,0.18
		c0.36-0.01,0.67-0.26,0.67-0.55c0.01-0.29-0.28-0.51-0.65-0.5c-5.71,0.19-13.36-3.56-16.75-8.29c-0.15-0.21-0.47-0.3-0.76-0.22
		l-4.47,1.05c-1.28,1.39-3.19,3.61-5.08,4.44c-1.72,1.25-8.79,2.2-6.04-1.12c1.15-1.39,2.21-2.85,3.17-4.38
		c4.68-7.42,3.81-5.9,12.57-8.92c1.67-0.42,7.03,0.57,12.04,1.5c4.36,0.81,9.2,2.14,13.54,2.41l8.38,19.7L77.93,57.17L77.93,57.17z
		 M86.85,54.21l10.65-2.95L89.62,26.7l-12.55,4.86L86.85,54.21L86.85,54.21z M43.11,68.32l0.01-0.02l0.32-0.44
		c0.93-1.29,0.78-2.42,0.12-3.22c-0.25-0.3-0.58-0.56-0.95-0.76c-0.37-0.2-0.78-0.34-1.2-0.41c-0.91-0.15-1.85,0.04-2.47,0.7
		c-0.07,0.11-0.15,0.23-0.23,0.34l0,0l-1.94,2.89c-0.62,0.89-0.38,1.85,0.27,2.56c0.26,0.29,0.59,0.54,0.95,0.73
		c0.36,0.19,0.76,0.33,1.17,0.4c1.02,0.16,2.11-0.14,2.88-1.19c0.01-0.01,0.01-0.02,0.02-0.02L43.11,68.32L43.11,68.32z
		 M25.89,58.85c0.57-1.07,0.39-2-0.17-2.68c-0.25-0.3-0.57-0.56-0.94-0.76c-0.37-0.2-0.78-0.34-1.2-0.41
		c-1.03-0.18-2.11,0.08-2.73,0.96l-1.04,1.6c-0.67,0.95-0.4,2.03,0.31,2.84c0.26,0.3,0.59,0.57,0.95,0.77
		c0.35,0.2,0.74,0.35,1.13,0.41c0.92,0.15,1.9-0.13,2.63-1.12L25.89,58.85L25.89,58.85z M33.4,60.68c-0.94,1.6-1.63,2.46-2.69,3.97
		c-0.01,0.01-0.01,0.02-0.02,0.02c-0.66,0.89-0.5,1.88,0.09,2.65c0.25,0.32,0.56,0.59,0.92,0.81c0.35,0.21,0.76,0.37,1.17,0.45
		c0.95,0.18,2-0.08,2.85-1.03l1.61-2.37l1.02-1.47c0.07-0.1,0.15-0.2,0.23-0.29c0.67-1.12,0.5-2.11-0.1-2.84
		c-0.27-0.32-0.61-0.6-1-0.8c-0.39-0.21-0.83-0.35-1.27-0.42c-1-0.15-2.03,0.12-2.58,0.98l0,0l-0.01,0.02L33.4,60.68L33.4,60.68z"/>
</g>
</svg>
